<svg xmlns="http://www.w3.org/2000/svg" viewBox="0 0 1200 630">
  <rect width="1200" height="630" fill="#100e18"/>
  <g shape-rendering="crispEdges">
    <rect x="0" y="0" width="1200" height="630" fill="#171421"/>
    <rect x="0" y="96" width="1200" height="96" fill="#211d31"/>
    <rect x="0" y="288" width="1200" height="96" fill="#2d2952"/>
    <rect x="0" y="480" width="1200" height="96" fill="#211d31"/>
    <rect x="120" y="132" width="18" height="18" fill="#ffd15c"/>
    <rect x="820" y="108" width="18" height="18" fill="#76f8d0"/>
    <rect x="940" y="388" width="18" height="18" fill="#ffd15c"/>
    <rect x="240" y="430" width="18" height="18" fill="#76f8d0"/>
    <rect x="570" y="302" width="30" height="30" fill="#ffd9a3"/>
    <rect x="552" y="334" width="66" height="54" fill="#ffd15c"/>
    <rect x="534" y="390" width="102" height="18" fill="#0b0910"/>
    <rect x="730" y="302" width="54" height="84" fill="#817d93"/>
    <rect x="712" y="386" width="90" height="18" fill="#0b0910"/>
    <rect x="746" y="338" width="22" height="8" fill="#403b53"/>
    <rect x="754" y="324" width="8" height="34" fill="#403b53"/>
  </g>
  <text x="96" y="236" fill="#f4ecdc" font-family="Courier New, monospace" font-size="72" font-weight="700">LIVE TO SEE IT</text>
  <text x="98" y="470" fill="#76f8d0" font-family="Courier New, monospace" font-size="34">pixel survival browser game</text>
</svg>
